<svg width="23" height="23" viewBox="0 0 23 23" fill="none" xmlns="http://www.w3.org/2000/svg">
<path d="M20.3824 11.5001C20.3824 16.6168 16.2344 20.7648 11.1177 20.7648C6.00091 20.7648 1.85297 16.6168 1.85297 11.5001C1.85297 6.3833 6.00091 2.23535 11.1177 2.23535C16.2344 2.23535 20.3824 6.3833 20.3824 11.5001Z" stroke="#DFD9CD" stroke-opacity="0.6" stroke-width="1.38971"/>
<path d="M13.8971 13.353C13.8971 14.3764 13.0675 15.206 12.0441 15.206H11.1177C10.2543 15.206 9.82265 15.206 9.48208 15.0649C9.02809 14.8769 8.66737 14.5161 8.4793 14.0621C8.33826 13.7216 8.33826 13.2899 8.33826 12.4265V10.5736C8.33826 9.71022 8.33826 9.27856 8.4793 8.93804C8.66737 8.48402 9.02809 8.1233 9.48208 7.93524C9.82265 7.79419 10.2543 7.79419 11.1177 7.79419H12.0441C13.0675 7.79419 13.8971 8.62378 13.8971 9.64713" stroke="#DFD9CD" stroke-opacity="0.6" stroke-width="1.38971" stroke-linecap="round"/>
</svg>
