<svg width="20" height="21" viewBox="0 0 20 21" fill="none" xmlns="http://www.w3.org/2000/svg">
<path d="M5.43095 14.7611C5.75965 15.2422 6.7572 16.2691 8.1179 16.5278M8.22007 18.8334C7.36302 18.6922 1.6665 16.8382 1.6665 10.5772C1.6665 4.71949 6.66809 2.16675 10.0005 2.16675C13.3328 2.16675 18.3332 4.71949 18.3332 10.5772C18.3332 16.8382 12.6367 18.6922 11.7796 18.8334C11.7796 18.8334 11.6054 15.9856 11.7071 15.4975C11.8087 15.0095 11.4625 14.2241 11.4625 14.2241C12.2717 13.9213 13.5034 13.4873 13.9166 12.3229C14.2372 11.4194 14.4388 10.1074 13.5422 8.87416C13.5422 8.87416 13.7763 6.88182 13.3328 6.80465C12.8894 6.72747 11.583 7.59335 11.583 7.59335C11.2025 7.48548 10.3534 7.27905 10.0013 7.31624C9.64917 7.27905 8.79717 7.48548 8.41667 7.59335C8.41667 7.59335 7.11025 6.72747 6.6668 6.80465C6.22336 6.88182 6.45748 8.87416 6.45748 8.87416C5.5608 10.1074 5.76247 11.4194 6.08309 12.3229C6.4963 13.4873 7.72804 13.9213 8.53717 14.2241C8.53717 14.2241 8.19104 15.0095 8.29263 15.4975C8.39425 15.9856 8.22007 18.8334 8.22007 18.8334Z" stroke="#999999" stroke-width="1.25" stroke-linecap="round" stroke-linejoin="round"/>
</svg>
