<svg width="20" height="21" viewBox="0 0 20 21" fill="none" xmlns="http://www.w3.org/2000/svg">
<path d="M2.0835 10.4999C2.0835 6.76797 2.0835 4.90199 3.24286 3.74262C4.40224 2.58325 6.26821 2.58325 10.0002 2.58325C13.7321 2.58325 15.5981 2.58325 16.7575 3.74262C17.9168 4.90199 17.9168 6.76797 17.9168 10.4999C17.9168 14.2318 17.9168 16.0978 16.7575 17.2573C15.5981 18.4166 13.7321 18.4166 10.0002 18.4166C6.26821 18.4166 4.40224 18.4166 3.24286 17.2573C2.0835 16.0978 2.0835 14.2318 2.0835 10.4999Z" fill="#999999" fill-opacity="0.5"/>
<path d="M13.75 10.5C13.75 12.5711 12.0711 14.25 10 14.25C7.92893 14.25 6.25 12.5711 6.25 10.5C6.25 8.42893 7.92893 6.75 10 6.75C12.0711 6.75 13.75 8.42893 13.75 10.5Z" stroke="#151515" stroke-width="1.25"/>
<path d="M14.59 5.91675H14.5825" stroke="#151515" stroke-width="1.66667" stroke-linecap="round" stroke-linejoin="round"/>
</svg>
