<svg width="20" height="21" viewBox="0 0 20 21" fill="none" xmlns="http://www.w3.org/2000/svg">
<path d="M16.6668 11.5V5.83333C16.6668 4.26198 16.6668 3.47631 16.1787 2.98816C15.6905 2.5 14.9048 2.5 13.3335 2.5H6.66683C5.09548 2.5 4.3098 2.5 3.82165 2.98816C3.3335 3.47631 3.3335 4.26198 3.3335 5.83333V11.5" stroke="#999999" stroke-opacity="0.5" stroke-width="1.25" stroke-linecap="round" stroke-linejoin="round"/>
<path d="M10 5H10.0075" stroke="#999999" stroke-opacity="0.5" stroke-width="1.66667" stroke-linecap="round" stroke-linejoin="round"/>
<path d="M3.1981 14.5703L3.61562 13.7H16.3614L16.8018 14.5703C17.9562 16.8517 18.2437 16.9923 17.8049 17.8462C17.3662 18.7 16.2029 18.7 13.8763 18.7H6.1237C3.79714 18.7 2.63385 18.7 2.1951 17.8462C1.75634 16.9923 2.04379 16.8517 3.1981 14.5703Z" fill="#999999" fill-opacity="0.5"/>
<path d="M3.16481 13.4837C3.24801 13.3103 3.42329 13.2 3.61562 13.2H16.3614C16.55 13.2 16.7225 13.306 16.8076 13.4742L17.248 14.3445L17.248 14.3446C17.4689 14.7811 17.6569 15.137 17.816 15.4382C17.8632 15.5274 17.9078 15.6118 17.9499 15.692C18.1301 16.0351 18.2753 16.32 18.3685 16.5668C18.4655 16.8234 18.52 17.0729 18.4932 17.3441C18.4672 17.6067 18.369 17.8423 18.2496 18.0747M3.16481 13.4837L18.2496 18.0747M3.16481 13.4837L2.74958 14.3493C2.52975 14.7836 2.34255 15.1379 2.184 15.438C2.13685 15.5273 2.09223 15.6117 2.05004 15.692C1.86989 16.0351 1.72471 16.32 1.63145 16.5669C1.53453 16.8235 1.47998 17.0729 1.50682 17.3441C1.53281 17.6067 1.63094 17.8422 1.75037 18.0747L1.75038 18.0747C2.07409 18.7046 2.66245 18.9679 3.36878 19.0863C4.04659 19.2 4.95307 19.2 6.07479 19.2L6.1237 19.2H13.8763L13.9252 19.2C15.047 19.2 15.9534 19.2 16.6312 19.0863C17.3376 18.9679 17.9259 18.7046 18.2496 18.0747M3.16481 13.4837L17.8049 17.8462L18.2496 18.0747" stroke="#999999" stroke-opacity="0.5" stroke-linecap="round" stroke-linejoin="round"/>
</svg>
