<svg width="20" height="21" viewBox="0 0 20 21" fill="none" xmlns="http://www.w3.org/2000/svg">
<path d="M9.25027 3.00195C6.20952 3.00742 4.61721 3.08207 3.59962 4.09965C2.50146 5.19777 2.50146 6.96519 2.50146 10.5C2.50146 14.0348 2.50146 15.8022 3.59962 16.9003C4.69777 17.9985 6.46524 17.9985 10.0002 17.9985C13.535 17.9985 15.3025 17.9985 16.4007 16.9003C17.4183 15.8828 17.4929 14.2906 17.4984 11.2499" stroke="#999999" stroke-width="1.25" stroke-linecap="round" stroke-linejoin="round"/>
<path d="M17.0668 3.43116L12.4424 8.04282M17.0668 3.43116C16.6551 3.01906 13.8821 3.05748 13.2959 3.06581M17.0668 3.43116C17.4784 3.84325 17.44 6.61931 17.4317 7.20618" stroke="#999999" stroke-width="1.25" stroke-linecap="round" stroke-linejoin="round"/>
</svg>
