<svg width="20" height="21" viewBox="0 0 20 21" fill="none" xmlns="http://www.w3.org/2000/svg">
<path d="M2.0835 10.4999C2.0835 6.76797 2.0835 4.90199 3.24286 3.74262C4.40224 2.58325 6.26821 2.58325 10.0002 2.58325C13.7321 2.58325 15.5981 2.58325 16.7575 3.74262C17.9168 4.90199 17.9168 6.76797 17.9168 10.4999C17.9168 14.2318 17.9168 16.0978 16.7575 17.2573C15.5981 18.4166 13.7321 18.4166 10.0002 18.4166C6.26821 18.4166 4.40224 18.4166 3.24286 17.2573C2.0835 16.0978 2.0835 14.2318 2.0835 10.4999Z" fill="#999999" fill-opacity="0.5"/>
<path d="M5.8335 8.8335V14.6668" stroke="#151515" stroke-width="1.25" stroke-linecap="round" stroke-linejoin="round"/>
<path d="M9.1665 11.3335V14.6668M9.1665 11.3335C9.1665 9.95275 10.2858 8.8335 11.6665 8.8335C13.0473 8.8335 14.1665 9.95275 14.1665 11.3335V14.6668M9.1665 11.3335V8.8335" stroke="#151515" stroke-width="1.25" stroke-linecap="round" stroke-linejoin="round"/>
<path d="M5.84001 6.33325H5.83252" stroke="#151515" stroke-width="1.66667" stroke-linecap="round" stroke-linejoin="round"/>
</svg>
