<svg width="101" height="54" viewBox="0 0 101 54" fill="none" xmlns="http://www.w3.org/2000/svg">
<mask id="path-1-outside-1_149_195" maskUnits="userSpaceOnUse" x="9" y="9" width="83" height="36" fill="black">
<rect fill="white" x="9" y="9" width="83" height="36"/>
<path d="M16.79 34.045C16.6267 34.045 16.4633 34.045 16.3 34.045C16.1367 34.045 15.9733 34.0333 15.81 34.01C14.8067 33.9167 13.8617 33.6133 12.975 33.1C12.0883 32.61 11.365 31.9333 10.805 31.07C10.2683 30.1833 10 29.1333 10 27.92C10 27.1267 10.1167 26.3333 10.35 25.54C10.5833 24.7467 10.98 23.9883 11.54 23.265C12.1 22.5417 12.7883 21.9233 13.605 21.41C12.695 19.8933 12.24 18.4233 12.24 17C12.24 15.67 12.59 14.48 13.29 13.43C14.0133 12.38 15.005 11.5517 16.265 10.945C17.5483 10.315 19.03 10 20.71 10C22.11 10 23.4983 10.1983 24.875 10.595C26.275 10.9683 27.64 11.4467 28.97 12.03C30.3233 12.6133 31.63 13.185 32.89 13.745C33.8 12.8817 34.675 12.2867 35.515 11.96C36.355 11.6333 37.1017 11.47 37.755 11.47C38.2683 11.47 38.7117 11.5517 39.085 11.715C39.4583 11.855 39.7267 12.0183 39.89 12.205C40.03 12.3683 40.1 12.5317 40.1 12.695C40.1 12.9983 39.9833 13.15 39.75 13.15C39.61 13.15 39.47 13.0683 39.33 12.905C39.0733 12.5783 38.7817 12.3567 38.455 12.24C38.1517 12.1 37.825 12.03 37.475 12.03C36.8217 12.03 36.145 12.2283 35.445 12.625C34.7683 13.0217 34.1617 13.4883 33.625 14.025C34.5117 14.305 35.5967 14.5967 36.88 14.9C38.1867 15.2033 39.4817 15.355 40.765 15.355C41.7683 15.355 42.69 15.2267 43.53 14.97C44.3933 14.69 45.0817 14.2233 45.595 13.57C45.7817 13.3133 45.98 13.185 46.19 13.185C46.4233 13.185 46.54 13.3133 46.54 13.57C46.54 13.7567 46.4583 13.9317 46.295 14.095C45.7817 14.6783 45.0233 15.18 44.02 15.6C43.04 15.9967 41.8033 16.195 40.31 16.195C39.33 16.195 38.2333 16.0783 37.02 15.845C35.83 15.6117 34.5117 15.2383 33.065 14.725C32.785 15.0517 32.4583 15.5417 32.085 16.195C31.735 16.825 31.3733 17.525 31 18.295C30.65 19.0417 30.335 19.7767 30.055 20.5C29.775 21.2 29.5767 21.7833 29.46 22.25C29.7167 22.2733 29.9733 22.2967 30.23 22.32C30.4867 22.3433 30.7317 22.355 30.965 22.355C31.3383 22.355 31.6767 22.32 31.98 22.25C32.2833 22.1567 32.5283 22.0167 32.715 21.83C32.9017 21.6433 33.065 21.55 33.205 21.55C33.3217 21.55 33.38 21.6083 33.38 21.725C33.38 21.8183 33.2867 21.9817 33.1 22.215C32.82 22.5183 32.4817 22.7283 32.085 22.845C31.6883 22.9617 31.245 23.02 30.755 23.02C30.2883 23.02 29.775 22.985 29.215 22.915C28.2583 25.6917 27.0917 27.8967 25.715 29.53C24.3617 31.1633 22.915 32.3183 21.375 32.995C19.835 33.695 18.3067 34.045 16.79 34.045ZM15.88 33.485C17.1867 33.555 18.365 33.275 19.415 32.645C20.465 32.015 21.4217 31.1633 22.285 30.09C23.1483 28.9933 23.9417 27.8033 24.665 26.52C25.3883 25.2133 26.065 23.9417 26.695 22.705C26.4617 22.6817 26.24 22.67 26.03 22.67C25.8433 22.6467 25.6567 22.635 25.47 22.635C24.98 22.635 24.4667 22.7283 23.93 22.915C23.8833 22.9383 23.8133 22.95 23.72 22.95C23.6033 22.95 23.545 22.8917 23.545 22.775C23.545 22.5883 23.685 22.425 23.965 22.285C24.455 22.0517 25.0967 21.935 25.89 21.935C26.0767 21.935 26.2633 21.935 26.45 21.935C26.66 21.935 26.87 21.9583 27.08 22.005C27.7567 20.6517 28.515 19.3217 29.355 18.015C30.195 16.7083 31.14 15.5067 32.19 14.41C31.3267 14.0833 30.3117 13.7333 29.145 13.36C28.0017 12.9867 26.7883 12.6717 25.505 12.415C24.245 12.1583 23.0083 12.03 21.795 12.03C20.255 12.03 18.89 12.31 17.7 12.87C16.51 13.43 15.565 14.1883 14.865 15.145C14.1883 16.1017 13.85 17.175 13.85 18.365C13.85 19.2517 14.0367 20.115 14.41 20.955C14.8767 20.7217 15.3783 20.5467 15.915 20.43C16.4517 20.29 16.9767 20.22 17.49 20.22C18.3767 20.22 19.205 20.4183 19.975 20.815C20.745 21.2117 21.3517 21.8767 21.795 22.81C22.3317 22.53 22.7517 22.145 23.055 21.655C23.3817 21.1417 23.615 20.5933 23.755 20.01C23.825 19.7767 23.93 19.66 24.07 19.66C24.1867 19.66 24.2567 19.765 24.28 19.975C24.2567 20.6517 24 21.3283 23.51 22.005C23.0433 22.6583 22.5417 23.1483 22.005 23.475C22.145 23.9183 22.215 24.385 22.215 24.875C22.215 25.785 21.97 26.6367 21.48 27.43C21.0133 28.2 20.395 28.8183 19.625 29.285C18.855 29.7517 18.015 29.985 17.105 29.985C16.685 29.985 16.2533 29.8917 15.81 29.705C15.3667 29.5183 15.04 29.2967 14.83 29.04C14.69 28.8533 14.62 28.7017 14.62 28.585C14.62 28.4217 14.69 28.34 14.83 28.34C14.97 28.34 15.145 28.4567 15.355 28.69C15.775 29.18 16.3467 29.425 17.07 29.425C17.7 29.425 18.3183 29.2383 18.925 28.865C19.555 28.4683 20.08 27.9433 20.5 27.29C20.92 26.6133 21.13 25.855 21.13 25.015C21.13 24.6417 21.0833 24.28 20.99 23.93C20.3133 24.1633 19.6017 24.28 18.855 24.28C17.9917 24.28 17.1517 24.1167 16.335 23.79C15.5417 23.4633 14.865 22.9733 14.305 22.32C13.7917 22.7633 13.3483 23.2883 12.975 23.895C12.625 24.4783 12.3333 25.12 12.1 25.82C11.96 26.2167 11.855 26.6133 11.785 27.01C11.7383 27.3833 11.715 27.7567 11.715 28.13C11.715 29.11 11.9017 29.9967 12.275 30.79C12.6483 31.5833 13.15 32.2133 13.78 32.68C14.4333 33.17 15.1333 33.4383 15.88 33.485ZM18.75 23.685C19.4267 23.685 20.1267 23.545 20.85 23.265C20.5 22.425 20.0567 21.8183 19.52 21.445C18.9833 21.0483 18.3883 20.85 17.735 20.85C17.2917 20.85 16.8367 20.9317 16.37 21.095C15.9033 21.2583 15.4367 21.4917 14.97 21.795C16.09 23.055 17.35 23.685 18.75 23.685Z"/>
<path d="M41.3575 32.085C40.7042 32.085 40.2375 31.8283 39.9575 31.315C39.6775 30.8017 39.5375 30.2067 39.5375 29.53C39.5375 29.4133 39.5375 29.285 39.5375 29.145C39.5375 29.005 39.5492 28.8767 39.5725 28.76C39.1292 29.5533 38.5575 30.3 37.8575 31C37.1575 31.7 36.2942 32.05 35.2675 32.05C34.5675 32.05 33.9725 31.7933 33.4825 31.28C33.0159 30.7667 32.7825 29.985 32.7825 28.935C32.7825 28.095 33.0159 27.045 33.4825 25.785C33.7392 25.1783 34.1125 24.56 34.6025 23.93C35.0925 23.3 35.6875 22.775 36.3875 22.355C37.0875 21.9117 37.8692 21.69 38.7325 21.69C39.6659 21.69 40.3192 21.865 40.6925 22.215C41.0659 22.565 41.2992 22.8333 41.3925 23.02C41.3925 23.0433 41.3925 23.0667 41.3925 23.09C41.4159 23.09 41.4275 23.1017 41.4275 23.125C41.4275 23.335 41.2992 23.44 41.0425 23.44C40.9259 23.44 40.8092 23.3817 40.6925 23.265C40.4125 22.9383 40.1325 22.705 39.8525 22.565C39.5725 22.425 39.3042 22.355 39.0475 22.355C38.5109 22.355 38.0092 22.5883 37.5425 23.055C37.0759 23.4983 36.6559 24.035 36.2825 24.665C35.9325 25.2717 35.6409 25.8433 35.4075 26.38C35.0809 27.1267 34.8359 27.8033 34.6725 28.41C34.5325 28.9933 34.4625 29.4833 34.4625 29.88C34.4625 30.93 34.8242 31.455 35.5475 31.455C36.0609 31.455 36.6675 31.1283 37.3675 30.475C38.0675 29.8217 38.7325 28.8533 39.3625 27.57C39.9225 26.45 40.4242 25.4583 40.8675 24.595C41.3109 23.7083 41.6959 22.9383 42.0225 22.285C42.0925 22.1217 42.2675 22.005 42.5475 21.935C42.8275 21.8417 43.1075 21.795 43.3875 21.795C43.6442 21.795 43.8775 21.8417 44.0875 21.935C44.2975 22.005 44.4025 22.1333 44.4025 22.32C44.4025 22.4133 44.3442 22.5417 44.2275 22.705C43.9475 23.1017 43.5859 23.685 43.1425 24.455C42.7225 25.225 42.3259 26.03 41.9525 26.87C41.6025 27.71 41.3692 28.4567 41.2525 29.11C41.1825 29.46 41.1475 29.775 41.1475 30.055C41.1475 30.8017 41.4042 31.175 41.9175 31.175C42.0809 31.175 42.3375 31.1167 42.6875 31C43.3409 30.72 44.0059 30.2883 44.6825 29.705C45.3825 29.0983 46.0359 28.4333 46.6425 27.71C47.2725 26.9867 47.7975 26.31 48.2175 25.68C48.4275 25.3767 48.5909 25.225 48.7075 25.225C48.7775 25.225 48.8125 25.2833 48.8125 25.4C48.8125 25.5867 48.7192 25.82 48.5325 26.1C48.1125 26.73 47.5759 27.43 46.9225 28.2C46.2925 28.97 45.6042 29.6817 44.8575 30.335C44.1342 30.9883 43.4225 31.4667 42.7225 31.77C42.2092 31.98 41.7542 32.085 41.3575 32.085Z"/>
<path d="M52.0339 32.12C51.4506 32.12 51.0072 31.945 50.7039 31.595C50.4006 31.2217 50.2489 30.7433 50.2489 30.16C50.2489 29.9033 50.2722 29.6233 50.3189 29.32C50.3889 28.9933 50.4939 28.6783 50.6339 28.375C50.8906 27.7683 51.1822 27.1967 51.5089 26.66C51.8589 26.1 52.1739 25.4933 52.4539 24.84C52.6172 24.49 52.6989 24.175 52.6989 23.895C52.6989 23.545 52.5589 23.3117 52.2789 23.195C51.9989 23.055 51.6606 22.9733 51.2639 22.95C50.8672 22.9033 50.4939 22.845 50.1439 22.775C49.7706 23.8483 49.3272 24.805 48.8139 25.645C48.3239 26.485 47.7056 27.325 46.9589 28.165C46.7022 28.4217 46.5156 28.55 46.3989 28.55C46.3056 28.55 46.2589 28.5033 46.2589 28.41C46.2589 28.2467 46.3872 28.025 46.6439 27.745C47.1572 27.1617 47.6122 26.5433 48.0089 25.89C48.4289 25.2133 48.7672 24.5833 49.0239 24C49.3039 23.4167 49.4789 22.985 49.5489 22.705C49.0356 22.495 48.6272 22.0983 48.3239 21.515C48.0206 20.9083 47.8689 20.3133 47.8689 19.73C47.8689 19.03 48.0439 18.4583 48.3939 18.015C48.7439 17.5483 49.1056 17.315 49.4789 17.315C49.8056 17.315 50.0972 17.5017 50.3539 17.875C50.6106 18.2483 50.7389 18.8783 50.7389 19.765C50.7389 20.1383 50.6922 20.5233 50.5989 20.92C50.5056 21.2933 50.4239 21.6083 50.3539 21.865C50.6339 21.9117 50.9606 21.9467 51.3339 21.97C51.7072 21.97 52.0222 21.9817 52.2789 22.005C52.5822 22.005 52.8739 22.0167 53.1539 22.04C53.4572 22.0633 53.7256 22.11 53.9589 22.18C54.5889 22.3667 54.9039 22.7517 54.9039 23.335C54.9039 23.8483 54.7056 24.49 54.3089 25.26C54.0056 25.9133 53.6672 26.5667 53.2939 27.22C52.9206 27.8733 52.6056 28.5383 52.3489 29.215C52.2556 29.4483 52.1739 29.6933 52.1039 29.95C52.0572 30.1833 52.0339 30.3933 52.0339 30.58C52.0339 31.0467 52.2439 31.28 52.6639 31.28C52.8972 31.28 53.2006 31.21 53.5739 31.07C54.2272 30.79 54.9039 30.3467 55.6039 29.74C56.3272 29.1333 57.0039 28.4683 57.6339 27.745C58.2639 27.0217 58.7772 26.3567 59.1739 25.75C59.3839 25.4467 59.5706 25.295 59.7339 25.295C59.8272 25.295 59.8739 25.3533 59.8739 25.47C59.8739 25.6333 59.7806 25.8433 59.5939 26.1C59.1972 26.73 58.6606 27.43 57.9839 28.2C57.3306 28.9467 56.6306 29.6467 55.8839 30.3C55.1372 30.93 54.4139 31.3967 53.7139 31.7C53.0606 31.98 52.5006 32.12 52.0339 32.12ZM49.7589 21.76C49.7822 21.6667 49.7939 21.5033 49.7939 21.27C49.7939 21.0833 49.7822 20.885 49.7589 20.675C49.7589 20.4417 49.7589 20.2083 49.7589 19.975C49.7589 18.995 49.6306 18.5283 49.3739 18.575C49.2806 18.5983 49.1989 18.715 49.1289 18.925C49.0589 19.135 49.0239 19.38 49.0239 19.66C49.0239 20.0567 49.0822 20.465 49.1989 20.885C49.3389 21.305 49.5256 21.5967 49.7589 21.76Z"/>
<path d="M61.1831 32.085C60.4598 32.085 59.9465 31.875 59.6431 31.455C59.3631 31.0117 59.2231 30.475 59.2231 29.845C59.2231 29.2383 59.3048 28.6083 59.4681 27.955C59.6548 27.2783 59.8648 26.6483 60.0981 26.065C60.3315 25.4817 60.5181 25.0267 60.6581 24.7C60.3548 25.1433 60.0398 25.5867 59.7131 26.03C59.4098 26.4733 59.0715 26.905 58.6981 27.325C58.4881 27.5583 58.2898 27.675 58.1031 27.675C58.0098 27.675 57.9631 27.6283 57.9631 27.535C57.9631 27.4417 58.0215 27.325 58.1381 27.185C58.9548 26.135 59.6315 25.1667 60.1681 24.28C60.7281 23.3933 61.1481 22.7283 61.4281 22.285C61.6148 21.9583 61.9181 21.76 62.3381 21.69C62.7581 21.62 63.1198 21.5967 63.4231 21.62C63.5165 21.62 63.6215 21.6317 63.7381 21.655C63.8548 21.655 64.0298 21.655 64.2631 21.655C63.7731 22.495 63.3415 23.405 62.9681 24.385C62.5948 25.365 62.1981 26.2983 61.7781 27.185C61.4281 27.9083 61.1715 28.5383 61.0081 29.075C60.8448 29.6117 60.7631 30.055 60.7631 30.405C60.7631 31.035 60.9848 31.35 61.4281 31.35C61.7781 31.35 62.2215 31.07 62.7581 30.51C63.2948 29.9267 63.8431 29.2033 64.4031 28.34C64.9631 27.4767 65.4298 26.6017 65.8031 25.715C66.0831 25.1083 66.3515 24.49 66.6081 23.86C66.8881 23.23 67.1098 22.705 67.2731 22.285C67.3665 22.1217 67.5881 22.005 67.9381 21.935C68.3115 21.8417 68.7198 21.7833 69.1631 21.76C69.6298 21.7367 70.0498 21.725 70.4231 21.725C70.1198 22.005 69.7698 22.4833 69.3731 23.16C68.9998 23.8133 68.6265 24.56 68.2531 25.4C67.9031 26.24 67.6115 27.0683 67.3781 27.885C67.1448 28.7017 67.0281 29.4017 67.0281 29.985C67.0281 30.0783 67.0281 30.1717 67.0281 30.265C67.0515 30.3583 67.0748 30.4517 67.0981 30.545C67.2148 30.965 67.4948 31.175 67.9381 31.175C68.0548 31.175 68.1715 31.1633 68.2881 31.14C68.4281 31.1167 68.5798 31.07 68.7431 31C69.3965 30.72 70.0731 30.3 70.7731 29.74C71.4731 29.18 72.1381 28.55 72.7681 27.85C73.3981 27.15 73.9231 26.485 74.3431 25.855C74.5531 25.5517 74.7281 25.4 74.8681 25.4C74.9381 25.4 74.9731 25.4467 74.9731 25.54C74.9731 25.7267 74.8798 25.96 74.6931 26.24C74.2731 26.87 73.7481 27.5583 73.1181 28.305C72.5115 29.0517 71.8465 29.74 71.1231 30.37C70.4231 31 69.7231 31.4667 69.0231 31.77C68.5098 31.98 68.0315 32.085 67.5881 32.085C66.7015 32.085 66.0248 31.735 65.5581 31.035C65.1148 30.3117 64.9398 29.5417 65.0331 28.725C64.4965 29.635 63.9015 30.4283 63.2481 31.105C62.6181 31.7583 61.9298 32.085 61.1831 32.085Z"/>
<path d="M78.3897 43.95C77.7364 43.8567 77.2814 43.5533 77.0247 43.04C76.7681 42.55 76.6397 41.9317 76.6397 41.185C76.6397 40.2983 76.7681 39.3067 77.0247 38.21C77.3047 37.1367 77.6314 36.0633 78.0047 34.99C78.3781 33.94 78.7281 32.995 79.0547 32.155C79.4047 31.3383 79.6614 30.755 79.8247 30.405C79.3814 30.965 78.8331 31.4083 78.1797 31.735C77.5264 32.0383 76.8847 32.19 76.2547 32.19C75.5314 32.19 74.8897 31.945 74.3297 31.455C73.7931 30.9417 73.5247 30.1367 73.5247 29.04C73.5247 28.1767 73.7581 27.115 74.2247 25.855C74.4814 25.2717 74.8431 24.665 75.3097 24.035C75.7997 23.3817 76.3831 22.8333 77.0597 22.39C77.7597 21.9233 78.5414 21.69 79.4047 21.69C80.3614 21.69 81.0264 21.865 81.3997 22.215C81.7964 22.5417 82.0414 22.81 82.1347 23.02C82.1581 23.09 82.1697 23.1717 82.1697 23.265C82.1697 23.405 82.1231 23.51 82.0297 23.58C81.9364 23.65 81.8314 23.685 81.7147 23.685C81.5281 23.685 81.4114 23.615 81.3647 23.475C81.2481 23.0783 81.0614 22.81 80.8047 22.67C80.5714 22.5067 80.3147 22.425 80.0347 22.425C79.7314 22.425 79.4164 22.5067 79.0897 22.67C78.7631 22.81 78.4831 23.0083 78.2497 23.265C78.0631 23.475 77.8181 23.8367 77.5147 24.35C77.2347 24.84 76.9431 25.4233 76.6397 26.1C76.3597 26.7533 76.1147 27.4067 75.9047 28.06C75.7181 28.7133 75.6247 29.3083 75.6247 29.845C75.6247 30.2883 75.7181 30.6617 75.9047 30.965C76.0914 31.245 76.4181 31.385 76.8847 31.385C77.4447 31.385 77.9581 31.175 78.4247 30.755C78.9147 30.335 79.3464 29.8333 79.7197 29.25C80.1164 28.6667 80.4197 28.1417 80.6297 27.675C81.1897 26.5317 81.7264 25.47 82.2397 24.49C82.7531 23.51 83.1614 22.6933 83.4647 22.04C83.5581 21.8767 83.7331 21.7483 83.9897 21.655C84.2697 21.5617 84.5497 21.515 84.8297 21.515C85.0864 21.515 85.2964 21.5617 85.4597 21.655C85.6231 21.725 85.7047 21.8533 85.7047 22.04C85.7047 22.1567 85.6697 22.285 85.5997 22.425C85.4131 22.7983 85.1681 23.3 84.8647 23.93C84.5614 24.5367 84.2347 25.2133 83.8847 25.96C83.5581 26.6833 83.2314 27.4067 82.9047 28.13C82.5781 28.83 82.2981 29.46 82.0647 30.02C82.0181 30.16 81.9947 30.2883 81.9947 30.405C81.9947 30.6383 82.0764 30.8717 82.2397 31.105C82.4031 31.3383 82.6831 31.455 83.0797 31.455C83.3364 31.455 83.7097 31.3617 84.1997 31.175C84.8531 30.895 85.5414 30.475 86.2647 29.915C87.0114 29.3317 87.7114 28.6783 88.3647 27.955C89.0181 27.2317 89.5547 26.5433 89.9747 25.89C90.1847 25.5867 90.3597 25.435 90.4997 25.435C90.5697 25.435 90.6047 25.4817 90.6047 25.575C90.6047 25.7617 90.5114 25.995 90.3247 26.275C89.9981 26.7883 89.5664 27.3717 89.0297 28.025C88.4931 28.6783 87.8981 29.32 87.2447 29.95C86.6147 30.5567 85.9497 31.0817 85.2497 31.525C84.5731 31.9683 83.9081 32.225 83.2547 32.295C83.2081 32.295 83.1497 32.295 83.0797 32.295C83.0331 32.3183 82.9864 32.33 82.9397 32.33C82.6131 32.33 82.3564 32.2833 82.1697 32.19C82.0064 32.0967 81.9247 32.05 81.9247 32.05C82.0647 33.31 82.1347 34.4417 82.1347 35.445C82.1347 36.7283 82.0414 37.8483 81.8547 38.805C81.6681 39.7617 81.4347 40.6133 81.1547 41.36C80.7814 42.3633 80.3381 43.0633 79.8247 43.46C79.3347 43.8567 78.8564 44.02 78.3897 43.95ZM78.9497 42.935C79.3231 42.935 79.7314 42.2817 80.1747 40.975C80.3381 40.555 80.5014 39.89 80.6647 38.98C80.8514 38.0933 81.0031 37.1367 81.1197 36.11C81.2597 35.0833 81.3297 34.1733 81.3297 33.38C81.3297 33.0067 81.3064 32.6683 81.2597 32.365C81.2364 32.085 81.1781 31.8633 81.0847 31.7C80.6181 33.2633 80.1864 34.71 79.7897 36.04C79.4164 37.37 79.0664 38.8633 78.7397 40.52C78.6931 40.8 78.6464 41.0567 78.5997 41.29C78.5764 41.5233 78.5647 41.7333 78.5647 41.92C78.5647 42.5967 78.6931 42.935 78.9497 42.935Z"/>
</mask>
<path d="M16.79 34.045C16.6267 34.045 16.4633 34.045 16.3 34.045C16.1367 34.045 15.9733 34.0333 15.81 34.01C14.8067 33.9167 13.8617 33.6133 12.975 33.1C12.0883 32.61 11.365 31.9333 10.805 31.07C10.2683 30.1833 10 29.1333 10 27.92C10 27.1267 10.1167 26.3333 10.35 25.54C10.5833 24.7467 10.98 23.9883 11.54 23.265C12.1 22.5417 12.7883 21.9233 13.605 21.41C12.695 19.8933 12.24 18.4233 12.24 17C12.24 15.67 12.59 14.48 13.29 13.43C14.0133 12.38 15.005 11.5517 16.265 10.945C17.5483 10.315 19.03 10 20.71 10C22.11 10 23.4983 10.1983 24.875 10.595C26.275 10.9683 27.64 11.4467 28.97 12.03C30.3233 12.6133 31.63 13.185 32.89 13.745C33.8 12.8817 34.675 12.2867 35.515 11.96C36.355 11.6333 37.1017 11.47 37.755 11.47C38.2683 11.47 38.7117 11.5517 39.085 11.715C39.4583 11.855 39.7267 12.0183 39.89 12.205C40.03 12.3683 40.1 12.5317 40.1 12.695C40.1 12.9983 39.9833 13.15 39.75 13.15C39.61 13.15 39.47 13.0683 39.33 12.905C39.0733 12.5783 38.7817 12.3567 38.455 12.24C38.1517 12.1 37.825 12.03 37.475 12.03C36.8217 12.03 36.145 12.2283 35.445 12.625C34.7683 13.0217 34.1617 13.4883 33.625 14.025C34.5117 14.305 35.5967 14.5967 36.88 14.9C38.1867 15.2033 39.4817 15.355 40.765 15.355C41.7683 15.355 42.69 15.2267 43.53 14.97C44.3933 14.69 45.0817 14.2233 45.595 13.57C45.7817 13.3133 45.98 13.185 46.19 13.185C46.4233 13.185 46.54 13.3133 46.54 13.57C46.54 13.7567 46.4583 13.9317 46.295 14.095C45.7817 14.6783 45.0233 15.18 44.02 15.6C43.04 15.9967 41.8033 16.195 40.31 16.195C39.33 16.195 38.2333 16.0783 37.02 15.845C35.83 15.6117 34.5117 15.2383 33.065 14.725C32.785 15.0517 32.4583 15.5417 32.085 16.195C31.735 16.825 31.3733 17.525 31 18.295C30.65 19.0417 30.335 19.7767 30.055 20.5C29.775 21.2 29.5767 21.7833 29.46 22.25C29.7167 22.2733 29.9733 22.2967 30.23 22.32C30.4867 22.3433 30.7317 22.355 30.965 22.355C31.3383 22.355 31.6767 22.32 31.98 22.25C32.2833 22.1567 32.5283 22.0167 32.715 21.83C32.9017 21.6433 33.065 21.55 33.205 21.55C33.3217 21.55 33.38 21.6083 33.38 21.725C33.38 21.8183 33.2867 21.9817 33.1 22.215C32.82 22.5183 32.4817 22.7283 32.085 22.845C31.6883 22.9617 31.245 23.02 30.755 23.02C30.2883 23.02 29.775 22.985 29.215 22.915C28.2583 25.6917 27.0917 27.8967 25.715 29.53C24.3617 31.1633 22.915 32.3183 21.375 32.995C19.835 33.695 18.3067 34.045 16.79 34.045ZM15.88 33.485C17.1867 33.555 18.365 33.275 19.415 32.645C20.465 32.015 21.4217 31.1633 22.285 30.09C23.1483 28.9933 23.9417 27.8033 24.665 26.52C25.3883 25.2133 26.065 23.9417 26.695 22.705C26.4617 22.6817 26.24 22.67 26.03 22.67C25.8433 22.6467 25.6567 22.635 25.47 22.635C24.98 22.635 24.4667 22.7283 23.93 22.915C23.8833 22.9383 23.8133 22.95 23.72 22.95C23.6033 22.95 23.545 22.8917 23.545 22.775C23.545 22.5883 23.685 22.425 23.965 22.285C24.455 22.0517 25.0967 21.935 25.89 21.935C26.0767 21.935 26.2633 21.935 26.45 21.935C26.66 21.935 26.87 21.9583 27.08 22.005C27.7567 20.6517 28.515 19.3217 29.355 18.015C30.195 16.7083 31.14 15.5067 32.19 14.41C31.3267 14.0833 30.3117 13.7333 29.145 13.36C28.0017 12.9867 26.7883 12.6717 25.505 12.415C24.245 12.1583 23.0083 12.03 21.795 12.03C20.255 12.03 18.89 12.31 17.7 12.87C16.51 13.43 15.565 14.1883 14.865 15.145C14.1883 16.1017 13.85 17.175 13.85 18.365C13.85 19.2517 14.0367 20.115 14.41 20.955C14.8767 20.7217 15.3783 20.5467 15.915 20.43C16.4517 20.29 16.9767 20.22 17.49 20.22C18.3767 20.22 19.205 20.4183 19.975 20.815C20.745 21.2117 21.3517 21.8767 21.795 22.81C22.3317 22.53 22.7517 22.145 23.055 21.655C23.3817 21.1417 23.615 20.5933 23.755 20.01C23.825 19.7767 23.93 19.66 24.07 19.66C24.1867 19.66 24.2567 19.765 24.28 19.975C24.2567 20.6517 24 21.3283 23.51 22.005C23.0433 22.6583 22.5417 23.1483 22.005 23.475C22.145 23.9183 22.215 24.385 22.215 24.875C22.215 25.785 21.97 26.6367 21.48 27.43C21.0133 28.2 20.395 28.8183 19.625 29.285C18.855 29.7517 18.015 29.985 17.105 29.985C16.685 29.985 16.2533 29.8917 15.81 29.705C15.3667 29.5183 15.04 29.2967 14.83 29.04C14.69 28.8533 14.62 28.7017 14.62 28.585C14.62 28.4217 14.69 28.34 14.83 28.34C14.97 28.34 15.145 28.4567 15.355 28.69C15.775 29.18 16.3467 29.425 17.07 29.425C17.7 29.425 18.3183 29.2383 18.925 28.865C19.555 28.4683 20.08 27.9433 20.5 27.29C20.92 26.6133 21.13 25.855 21.13 25.015C21.13 24.6417 21.0833 24.28 20.99 23.93C20.3133 24.1633 19.6017 24.28 18.855 24.28C17.9917 24.28 17.1517 24.1167 16.335 23.79C15.5417 23.4633 14.865 22.9733 14.305 22.32C13.7917 22.7633 13.3483 23.2883 12.975 23.895C12.625 24.4783 12.3333 25.12 12.1 25.82C11.96 26.2167 11.855 26.6133 11.785 27.01C11.7383 27.3833 11.715 27.7567 11.715 28.13C11.715 29.11 11.9017 29.9967 12.275 30.79C12.6483 31.5833 13.15 32.2133 13.78 32.68C14.4333 33.17 15.1333 33.4383 15.88 33.485ZM18.75 23.685C19.4267 23.685 20.1267 23.545 20.85 23.265C20.5 22.425 20.0567 21.8183 19.52 21.445C18.9833 21.0483 18.3883 20.85 17.735 20.85C17.2917 20.85 16.8367 20.9317 16.37 21.095C15.9033 21.2583 15.4367 21.4917 14.97 21.795C16.09 23.055 17.35 23.685 18.75 23.685Z" fill="#606060"/>
<path d="M41.3575 32.085C40.7042 32.085 40.2375 31.8283 39.9575 31.315C39.6775 30.8017 39.5375 30.2067 39.5375 29.53C39.5375 29.4133 39.5375 29.285 39.5375 29.145C39.5375 29.005 39.5492 28.8767 39.5725 28.76C39.1292 29.5533 38.5575 30.3 37.8575 31C37.1575 31.7 36.2942 32.05 35.2675 32.05C34.5675 32.05 33.9725 31.7933 33.4825 31.28C33.0159 30.7667 32.7825 29.985 32.7825 28.935C32.7825 28.095 33.0159 27.045 33.4825 25.785C33.7392 25.1783 34.1125 24.56 34.6025 23.93C35.0925 23.3 35.6875 22.775 36.3875 22.355C37.0875 21.9117 37.8692 21.69 38.7325 21.69C39.6659 21.69 40.3192 21.865 40.6925 22.215C41.0659 22.565 41.2992 22.8333 41.3925 23.02C41.3925 23.0433 41.3925 23.0667 41.3925 23.09C41.4159 23.09 41.4275 23.1017 41.4275 23.125C41.4275 23.335 41.2992 23.44 41.0425 23.44C40.9259 23.44 40.8092 23.3817 40.6925 23.265C40.4125 22.9383 40.1325 22.705 39.8525 22.565C39.5725 22.425 39.3042 22.355 39.0475 22.355C38.5109 22.355 38.0092 22.5883 37.5425 23.055C37.0759 23.4983 36.6559 24.035 36.2825 24.665C35.9325 25.2717 35.6409 25.8433 35.4075 26.38C35.0809 27.1267 34.8359 27.8033 34.6725 28.41C34.5325 28.9933 34.4625 29.4833 34.4625 29.88C34.4625 30.93 34.8242 31.455 35.5475 31.455C36.0609 31.455 36.6675 31.1283 37.3675 30.475C38.0675 29.8217 38.7325 28.8533 39.3625 27.57C39.9225 26.45 40.4242 25.4583 40.8675 24.595C41.3109 23.7083 41.6959 22.9383 42.0225 22.285C42.0925 22.1217 42.2675 22.005 42.5475 21.935C42.8275 21.8417 43.1075 21.795 43.3875 21.795C43.6442 21.795 43.8775 21.8417 44.0875 21.935C44.2975 22.005 44.4025 22.1333 44.4025 22.32C44.4025 22.4133 44.3442 22.5417 44.2275 22.705C43.9475 23.1017 43.5859 23.685 43.1425 24.455C42.7225 25.225 42.3259 26.03 41.9525 26.87C41.6025 27.71 41.3692 28.4567 41.2525 29.11C41.1825 29.46 41.1475 29.775 41.1475 30.055C41.1475 30.8017 41.4042 31.175 41.9175 31.175C42.0809 31.175 42.3375 31.1167 42.6875 31C43.3409 30.72 44.0059 30.2883 44.6825 29.705C45.3825 29.0983 46.0359 28.4333 46.6425 27.71C47.2725 26.9867 47.7975 26.31 48.2175 25.68C48.4275 25.3767 48.5909 25.225 48.7075 25.225C48.7775 25.225 48.8125 25.2833 48.8125 25.4C48.8125 25.5867 48.7192 25.82 48.5325 26.1C48.1125 26.73 47.5759 27.43 46.9225 28.2C46.2925 28.97 45.6042 29.6817 44.8575 30.335C44.1342 30.9883 43.4225 31.4667 42.7225 31.77C42.2092 31.98 41.7542 32.085 41.3575 32.085Z" fill="#606060"/>
<path d="M52.0339 32.12C51.4506 32.12 51.0072 31.945 50.7039 31.595C50.4006 31.2217 50.2489 30.7433 50.2489 30.16C50.2489 29.9033 50.2722 29.6233 50.3189 29.32C50.3889 28.9933 50.4939 28.6783 50.6339 28.375C50.8906 27.7683 51.1822 27.1967 51.5089 26.66C51.8589 26.1 52.1739 25.4933 52.4539 24.84C52.6172 24.49 52.6989 24.175 52.6989 23.895C52.6989 23.545 52.5589 23.3117 52.2789 23.195C51.9989 23.055 51.6606 22.9733 51.2639 22.95C50.8672 22.9033 50.4939 22.845 50.1439 22.775C49.7706 23.8483 49.3272 24.805 48.8139 25.645C48.3239 26.485 47.7056 27.325 46.9589 28.165C46.7022 28.4217 46.5156 28.55 46.3989 28.55C46.3056 28.55 46.2589 28.5033 46.2589 28.41C46.2589 28.2467 46.3872 28.025 46.6439 27.745C47.1572 27.1617 47.6122 26.5433 48.0089 25.89C48.4289 25.2133 48.7672 24.5833 49.0239 24C49.3039 23.4167 49.4789 22.985 49.5489 22.705C49.0356 22.495 48.6272 22.0983 48.3239 21.515C48.0206 20.9083 47.8689 20.3133 47.8689 19.73C47.8689 19.03 48.0439 18.4583 48.3939 18.015C48.7439 17.5483 49.1056 17.315 49.4789 17.315C49.8056 17.315 50.0972 17.5017 50.3539 17.875C50.6106 18.2483 50.7389 18.8783 50.7389 19.765C50.7389 20.1383 50.6922 20.5233 50.5989 20.92C50.5056 21.2933 50.4239 21.6083 50.3539 21.865C50.6339 21.9117 50.9606 21.9467 51.3339 21.97C51.7072 21.97 52.0222 21.9817 52.2789 22.005C52.5822 22.005 52.8739 22.0167 53.1539 22.04C53.4572 22.0633 53.7256 22.11 53.9589 22.18C54.5889 22.3667 54.9039 22.7517 54.9039 23.335C54.9039 23.8483 54.7056 24.49 54.3089 25.26C54.0056 25.9133 53.6672 26.5667 53.2939 27.22C52.9206 27.8733 52.6056 28.5383 52.3489 29.215C52.2556 29.4483 52.1739 29.6933 52.1039 29.95C52.0572 30.1833 52.0339 30.3933 52.0339 30.58C52.0339 31.0467 52.2439 31.28 52.6639 31.28C52.8972 31.28 53.2006 31.21 53.5739 31.07C54.2272 30.79 54.9039 30.3467 55.6039 29.74C56.3272 29.1333 57.0039 28.4683 57.6339 27.745C58.2639 27.0217 58.7772 26.3567 59.1739 25.75C59.3839 25.4467 59.5706 25.295 59.7339 25.295C59.8272 25.295 59.8739 25.3533 59.8739 25.47C59.8739 25.6333 59.7806 25.8433 59.5939 26.1C59.1972 26.73 58.6606 27.43 57.9839 28.2C57.3306 28.9467 56.6306 29.6467 55.8839 30.3C55.1372 30.93 54.4139 31.3967 53.7139 31.7C53.0606 31.98 52.5006 32.12 52.0339 32.12ZM49.7589 21.76C49.7822 21.6667 49.7939 21.5033 49.7939 21.27C49.7939 21.0833 49.7822 20.885 49.7589 20.675C49.7589 20.4417 49.7589 20.2083 49.7589 19.975C49.7589 18.995 49.6306 18.5283 49.3739 18.575C49.2806 18.5983 49.1989 18.715 49.1289 18.925C49.0589 19.135 49.0239 19.38 49.0239 19.66C49.0239 20.0567 49.0822 20.465 49.1989 20.885C49.3389 21.305 49.5256 21.5967 49.7589 21.76Z" fill="#606060"/>
<path d="M61.1831 32.085C60.4598 32.085 59.9465 31.875 59.6431 31.455C59.3631 31.0117 59.2231 30.475 59.2231 29.845C59.2231 29.2383 59.3048 28.6083 59.4681 27.955C59.6548 27.2783 59.8648 26.6483 60.0981 26.065C60.3315 25.4817 60.5181 25.0267 60.6581 24.7C60.3548 25.1433 60.0398 25.5867 59.7131 26.03C59.4098 26.4733 59.0715 26.905 58.6981 27.325C58.4881 27.5583 58.2898 27.675 58.1031 27.675C58.0098 27.675 57.9631 27.6283 57.9631 27.535C57.9631 27.4417 58.0215 27.325 58.1381 27.185C58.9548 26.135 59.6315 25.1667 60.1681 24.28C60.7281 23.3933 61.1481 22.7283 61.4281 22.285C61.6148 21.9583 61.9181 21.76 62.3381 21.69C62.7581 21.62 63.1198 21.5967 63.4231 21.62C63.5165 21.62 63.6215 21.6317 63.7381 21.655C63.8548 21.655 64.0298 21.655 64.2631 21.655C63.7731 22.495 63.3415 23.405 62.9681 24.385C62.5948 25.365 62.1981 26.2983 61.7781 27.185C61.4281 27.9083 61.1715 28.5383 61.0081 29.075C60.8448 29.6117 60.7631 30.055 60.7631 30.405C60.7631 31.035 60.9848 31.35 61.4281 31.35C61.7781 31.35 62.2215 31.07 62.7581 30.51C63.2948 29.9267 63.8431 29.2033 64.4031 28.34C64.9631 27.4767 65.4298 26.6017 65.8031 25.715C66.0831 25.1083 66.3515 24.49 66.6081 23.86C66.8881 23.23 67.1098 22.705 67.2731 22.285C67.3665 22.1217 67.5881 22.005 67.9381 21.935C68.3115 21.8417 68.7198 21.7833 69.1631 21.76C69.6298 21.7367 70.0498 21.725 70.4231 21.725C70.1198 22.005 69.7698 22.4833 69.3731 23.16C68.9998 23.8133 68.6265 24.56 68.2531 25.4C67.9031 26.24 67.6115 27.0683 67.3781 27.885C67.1448 28.7017 67.0281 29.4017 67.0281 29.985C67.0281 30.0783 67.0281 30.1717 67.0281 30.265C67.0515 30.3583 67.0748 30.4517 67.0981 30.545C67.2148 30.965 67.4948 31.175 67.9381 31.175C68.0548 31.175 68.1715 31.1633 68.2881 31.14C68.4281 31.1167 68.5798 31.07 68.7431 31C69.3965 30.72 70.0731 30.3 70.7731 29.74C71.4731 29.18 72.1381 28.55 72.7681 27.85C73.3981 27.15 73.9231 26.485 74.3431 25.855C74.5531 25.5517 74.7281 25.4 74.8681 25.4C74.9381 25.4 74.9731 25.4467 74.9731 25.54C74.9731 25.7267 74.8798 25.96 74.6931 26.24C74.2731 26.87 73.7481 27.5583 73.1181 28.305C72.5115 29.0517 71.8465 29.74 71.1231 30.37C70.4231 31 69.7231 31.4667 69.0231 31.77C68.5098 31.98 68.0315 32.085 67.5881 32.085C66.7015 32.085 66.0248 31.735 65.5581 31.035C65.1148 30.3117 64.9398 29.5417 65.0331 28.725C64.4965 29.635 63.9015 30.4283 63.2481 31.105C62.6181 31.7583 61.9298 32.085 61.1831 32.085Z" fill="#606060"/>
<path d="M78.3897 43.95C77.7364 43.8567 77.2814 43.5533 77.0247 43.04C76.7681 42.55 76.6397 41.9317 76.6397 41.185C76.6397 40.2983 76.7681 39.3067 77.0247 38.21C77.3047 37.1367 77.6314 36.0633 78.0047 34.99C78.3781 33.94 78.7281 32.995 79.0547 32.155C79.4047 31.3383 79.6614 30.755 79.8247 30.405C79.3814 30.965 78.8331 31.4083 78.1797 31.735C77.5264 32.0383 76.8847 32.19 76.2547 32.19C75.5314 32.19 74.8897 31.945 74.3297 31.455C73.7931 30.9417 73.5247 30.1367 73.5247 29.04C73.5247 28.1767 73.7581 27.115 74.2247 25.855C74.4814 25.2717 74.8431 24.665 75.3097 24.035C75.7997 23.3817 76.3831 22.8333 77.0597 22.39C77.7597 21.9233 78.5414 21.69 79.4047 21.69C80.3614 21.69 81.0264 21.865 81.3997 22.215C81.7964 22.5417 82.0414 22.81 82.1347 23.02C82.1581 23.09 82.1697 23.1717 82.1697 23.265C82.1697 23.405 82.1231 23.51 82.0297 23.58C81.9364 23.65 81.8314 23.685 81.7147 23.685C81.5281 23.685 81.4114 23.615 81.3647 23.475C81.2481 23.0783 81.0614 22.81 80.8047 22.67C80.5714 22.5067 80.3147 22.425 80.0347 22.425C79.7314 22.425 79.4164 22.5067 79.0897 22.67C78.7631 22.81 78.4831 23.0083 78.2497 23.265C78.0631 23.475 77.8181 23.8367 77.5147 24.35C77.2347 24.84 76.9431 25.4233 76.6397 26.1C76.3597 26.7533 76.1147 27.4067 75.9047 28.06C75.7181 28.7133 75.6247 29.3083 75.6247 29.845C75.6247 30.2883 75.7181 30.6617 75.9047 30.965C76.0914 31.245 76.4181 31.385 76.8847 31.385C77.4447 31.385 77.9581 31.175 78.4247 30.755C78.9147 30.335 79.3464 29.8333 79.7197 29.25C80.1164 28.6667 80.4197 28.1417 80.6297 27.675C81.1897 26.5317 81.7264 25.47 82.2397 24.49C82.7531 23.51 83.1614 22.6933 83.4647 22.04C83.5581 21.8767 83.7331 21.7483 83.9897 21.655C84.2697 21.5617 84.5497 21.515 84.8297 21.515C85.0864 21.515 85.2964 21.5617 85.4597 21.655C85.6231 21.725 85.7047 21.8533 85.7047 22.04C85.7047 22.1567 85.6697 22.285 85.5997 22.425C85.4131 22.7983 85.1681 23.3 84.8647 23.93C84.5614 24.5367 84.2347 25.2133 83.8847 25.96C83.5581 26.6833 83.2314 27.4067 82.9047 28.13C82.5781 28.83 82.2981 29.46 82.0647 30.02C82.0181 30.16 81.9947 30.2883 81.9947 30.405C81.9947 30.6383 82.0764 30.8717 82.2397 31.105C82.4031 31.3383 82.6831 31.455 83.0797 31.455C83.3364 31.455 83.7097 31.3617 84.1997 31.175C84.8531 30.895 85.5414 30.475 86.2647 29.915C87.0114 29.3317 87.7114 28.6783 88.3647 27.955C89.0181 27.2317 89.5547 26.5433 89.9747 25.89C90.1847 25.5867 90.3597 25.435 90.4997 25.435C90.5697 25.435 90.6047 25.4817 90.6047 25.575C90.6047 25.7617 90.5114 25.995 90.3247 26.275C89.9981 26.7883 89.5664 27.3717 89.0297 28.025C88.4931 28.6783 87.8981 29.32 87.2447 29.95C86.6147 30.5567 85.9497 31.0817 85.2497 31.525C84.5731 31.9683 83.9081 32.225 83.2547 32.295C83.2081 32.295 83.1497 32.295 83.0797 32.295C83.0331 32.3183 82.9864 32.33 82.9397 32.33C82.6131 32.33 82.3564 32.2833 82.1697 32.19C82.0064 32.0967 81.9247 32.05 81.9247 32.05C82.0647 33.31 82.1347 34.4417 82.1347 35.445C82.1347 36.7283 82.0414 37.8483 81.8547 38.805C81.6681 39.7617 81.4347 40.6133 81.1547 41.36C80.7814 42.3633 80.3381 43.0633 79.8247 43.46C79.3347 43.8567 78.8564 44.02 78.3897 43.95ZM78.9497 42.935C79.3231 42.935 79.7314 42.2817 80.1747 40.975C80.3381 40.555 80.5014 39.89 80.6647 38.98C80.8514 38.0933 81.0031 37.1367 81.1197 36.11C81.2597 35.0833 81.3297 34.1733 81.3297 33.38C81.3297 33.0067 81.3064 32.6683 81.2597 32.365C81.2364 32.085 81.1781 31.8633 81.0847 31.7C80.6181 33.2633 80.1864 34.71 79.7897 36.04C79.4164 37.37 79.0664 38.8633 78.7397 40.52C78.6931 40.8 78.6464 41.0567 78.5997 41.29C78.5764 41.5233 78.5647 41.7333 78.5647 41.92C78.5647 42.5967 78.6931 42.935 78.9497 42.935Z" fill="#606060"/>
<path d="M16.79 34.045C16.6267 34.045 16.4633 34.045 16.3 34.045C16.1367 34.045 15.9733 34.0333 15.81 34.01C14.8067 33.9167 13.8617 33.6133 12.975 33.1C12.0883 32.61 11.365 31.9333 10.805 31.07C10.2683 30.1833 10 29.1333 10 27.92C10 27.1267 10.1167 26.3333 10.35 25.54C10.5833 24.7467 10.98 23.9883 11.54 23.265C12.1 22.5417 12.7883 21.9233 13.605 21.41C12.695 19.8933 12.24 18.4233 12.24 17C12.24 15.67 12.59 14.48 13.29 13.43C14.0133 12.38 15.005 11.5517 16.265 10.945C17.5483 10.315 19.03 10 20.71 10C22.11 10 23.4983 10.1983 24.875 10.595C26.275 10.9683 27.64 11.4467 28.97 12.03C30.3233 12.6133 31.63 13.185 32.89 13.745C33.8 12.8817 34.675 12.2867 35.515 11.96C36.355 11.6333 37.1017 11.47 37.755 11.47C38.2683 11.47 38.7117 11.5517 39.085 11.715C39.4583 11.855 39.7267 12.0183 39.89 12.205C40.03 12.3683 40.1 12.5317 40.1 12.695C40.1 12.9983 39.9833 13.15 39.75 13.15C39.61 13.15 39.47 13.0683 39.33 12.905C39.0733 12.5783 38.7817 12.3567 38.455 12.24C38.1517 12.1 37.825 12.03 37.475 12.03C36.8217 12.03 36.145 12.2283 35.445 12.625C34.7683 13.0217 34.1617 13.4883 33.625 14.025C34.5117 14.305 35.5967 14.5967 36.88 14.9C38.1867 15.2033 39.4817 15.355 40.765 15.355C41.7683 15.355 42.69 15.2267 43.53 14.97C44.3933 14.69 45.0817 14.2233 45.595 13.57C45.7817 13.3133 45.98 13.185 46.19 13.185C46.4233 13.185 46.54 13.3133 46.54 13.57C46.54 13.7567 46.4583 13.9317 46.295 14.095C45.7817 14.6783 45.0233 15.18 44.02 15.6C43.04 15.9967 41.8033 16.195 40.31 16.195C39.33 16.195 38.2333 16.0783 37.02 15.845C35.83 15.6117 34.5117 15.2383 33.065 14.725C32.785 15.0517 32.4583 15.5417 32.085 16.195C31.735 16.825 31.3733 17.525 31 18.295C30.65 19.0417 30.335 19.7767 30.055 20.5C29.775 21.2 29.5767 21.7833 29.46 22.25C29.7167 22.2733 29.9733 22.2967 30.23 22.32C30.4867 22.3433 30.7317 22.355 30.965 22.355C31.3383 22.355 31.6767 22.32 31.98 22.25C32.2833 22.1567 32.5283 22.0167 32.715 21.83C32.9017 21.6433 33.065 21.55 33.205 21.55C33.3217 21.55 33.38 21.6083 33.38 21.725C33.38 21.8183 33.2867 21.9817 33.1 22.215C32.82 22.5183 32.4817 22.7283 32.085 22.845C31.6883 22.9617 31.245 23.02 30.755 23.02C30.2883 23.02 29.775 22.985 29.215 22.915C28.2583 25.6917 27.0917 27.8967 25.715 29.53C24.3617 31.1633 22.915 32.3183 21.375 32.995C19.835 33.695 18.3067 34.045 16.79 34.045ZM15.88 33.485C17.1867 33.555 18.365 33.275 19.415 32.645C20.465 32.015 21.4217 31.1633 22.285 30.09C23.1483 28.9933 23.9417 27.8033 24.665 26.52C25.3883 25.2133 26.065 23.9417 26.695 22.705C26.4617 22.6817 26.24 22.67 26.03 22.67C25.8433 22.6467 25.6567 22.635 25.47 22.635C24.98 22.635 24.4667 22.7283 23.93 22.915C23.8833 22.9383 23.8133 22.95 23.72 22.95C23.6033 22.95 23.545 22.8917 23.545 22.775C23.545 22.5883 23.685 22.425 23.965 22.285C24.455 22.0517 25.0967 21.935 25.89 21.935C26.0767 21.935 26.2633 21.935 26.45 21.935C26.66 21.935 26.87 21.9583 27.08 22.005C27.7567 20.6517 28.515 19.3217 29.355 18.015C30.195 16.7083 31.14 15.5067 32.19 14.41C31.3267 14.0833 30.3117 13.7333 29.145 13.36C28.0017 12.9867 26.7883 12.6717 25.505 12.415C24.245 12.1583 23.0083 12.03 21.795 12.03C20.255 12.03 18.89 12.31 17.7 12.87C16.51 13.43 15.565 14.1883 14.865 15.145C14.1883 16.1017 13.85 17.175 13.85 18.365C13.85 19.2517 14.0367 20.115 14.41 20.955C14.8767 20.7217 15.3783 20.5467 15.915 20.43C16.4517 20.29 16.9767 20.22 17.49 20.22C18.3767 20.22 19.205 20.4183 19.975 20.815C20.745 21.2117 21.3517 21.8767 21.795 22.81C22.3317 22.53 22.7517 22.145 23.055 21.655C23.3817 21.1417 23.615 20.5933 23.755 20.01C23.825 19.7767 23.93 19.66 24.07 19.66C24.1867 19.66 24.2567 19.765 24.28 19.975C24.2567 20.6517 24 21.3283 23.51 22.005C23.0433 22.6583 22.5417 23.1483 22.005 23.475C22.145 23.9183 22.215 24.385 22.215 24.875C22.215 25.785 21.97 26.6367 21.48 27.43C21.0133 28.2 20.395 28.8183 19.625 29.285C18.855 29.7517 18.015 29.985 17.105 29.985C16.685 29.985 16.2533 29.8917 15.81 29.705C15.3667 29.5183 15.04 29.2967 14.83 29.04C14.69 28.8533 14.62 28.7017 14.62 28.585C14.62 28.4217 14.69 28.34 14.83 28.34C14.97 28.34 15.145 28.4567 15.355 28.69C15.775 29.18 16.3467 29.425 17.07 29.425C17.7 29.425 18.3183 29.2383 18.925 28.865C19.555 28.4683 20.08 27.9433 20.5 27.29C20.92 26.6133 21.13 25.855 21.13 25.015C21.13 24.6417 21.0833 24.28 20.99 23.93C20.3133 24.1633 19.6017 24.28 18.855 24.28C17.9917 24.28 17.1517 24.1167 16.335 23.79C15.5417 23.4633 14.865 22.9733 14.305 22.32C13.7917 22.7633 13.3483 23.2883 12.975 23.895C12.625 24.4783 12.3333 25.12 12.1 25.82C11.96 26.2167 11.855 26.6133 11.785 27.01C11.7383 27.3833 11.715 27.7567 11.715 28.13C11.715 29.11 11.9017 29.9967 12.275 30.79C12.6483 31.5833 13.15 32.2133 13.78 32.68C14.4333 33.17 15.1333 33.4383 15.88 33.485ZM18.75 23.685C19.4267 23.685 20.1267 23.545 20.85 23.265C20.5 22.425 20.0567 21.8183 19.52 21.445C18.9833 21.0483 18.3883 20.85 17.735 20.85C17.2917 20.85 16.8367 20.9317 16.37 21.095C15.9033 21.2583 15.4367 21.4917 14.97 21.795C16.09 23.055 17.35 23.685 18.75 23.685Z" stroke="#606060" mask="url(#path-1-outside-1_149_195)"/>
<path d="M41.3575 32.085C40.7042 32.085 40.2375 31.8283 39.9575 31.315C39.6775 30.8017 39.5375 30.2067 39.5375 29.53C39.5375 29.4133 39.5375 29.285 39.5375 29.145C39.5375 29.005 39.5492 28.8767 39.5725 28.76C39.1292 29.5533 38.5575 30.3 37.8575 31C37.1575 31.7 36.2942 32.05 35.2675 32.05C34.5675 32.05 33.9725 31.7933 33.4825 31.28C33.0159 30.7667 32.7825 29.985 32.7825 28.935C32.7825 28.095 33.0159 27.045 33.4825 25.785C33.7392 25.1783 34.1125 24.56 34.6025 23.93C35.0925 23.3 35.6875 22.775 36.3875 22.355C37.0875 21.9117 37.8692 21.69 38.7325 21.69C39.6659 21.69 40.3192 21.865 40.6925 22.215C41.0659 22.565 41.2992 22.8333 41.3925 23.02C41.3925 23.0433 41.3925 23.0667 41.3925 23.09C41.4159 23.09 41.4275 23.1017 41.4275 23.125C41.4275 23.335 41.2992 23.44 41.0425 23.44C40.9259 23.44 40.8092 23.3817 40.6925 23.265C40.4125 22.9383 40.1325 22.705 39.8525 22.565C39.5725 22.425 39.3042 22.355 39.0475 22.355C38.5109 22.355 38.0092 22.5883 37.5425 23.055C37.0759 23.4983 36.6559 24.035 36.2825 24.665C35.9325 25.2717 35.6409 25.8433 35.4075 26.38C35.0809 27.1267 34.8359 27.8033 34.6725 28.41C34.5325 28.9933 34.4625 29.4833 34.4625 29.88C34.4625 30.93 34.8242 31.455 35.5475 31.455C36.0609 31.455 36.6675 31.1283 37.3675 30.475C38.0675 29.8217 38.7325 28.8533 39.3625 27.57C39.9225 26.45 40.4242 25.4583 40.8675 24.595C41.3109 23.7083 41.6959 22.9383 42.0225 22.285C42.0925 22.1217 42.2675 22.005 42.5475 21.935C42.8275 21.8417 43.1075 21.795 43.3875 21.795C43.6442 21.795 43.8775 21.8417 44.0875 21.935C44.2975 22.005 44.4025 22.1333 44.4025 22.32C44.4025 22.4133 44.3442 22.5417 44.2275 22.705C43.9475 23.1017 43.5859 23.685 43.1425 24.455C42.7225 25.225 42.3259 26.03 41.9525 26.87C41.6025 27.71 41.3692 28.4567 41.2525 29.11C41.1825 29.46 41.1475 29.775 41.1475 30.055C41.1475 30.8017 41.4042 31.175 41.9175 31.175C42.0809 31.175 42.3375 31.1167 42.6875 31C43.3409 30.72 44.0059 30.2883 44.6825 29.705C45.3825 29.0983 46.0359 28.4333 46.6425 27.71C47.2725 26.9867 47.7975 26.31 48.2175 25.68C48.4275 25.3767 48.5909 25.225 48.7075 25.225C48.7775 25.225 48.8125 25.2833 48.8125 25.4C48.8125 25.5867 48.7192 25.82 48.5325 26.1C48.1125 26.73 47.5759 27.43 46.9225 28.2C46.2925 28.97 45.6042 29.6817 44.8575 30.335C44.1342 30.9883 43.4225 31.4667 42.7225 31.77C42.2092 31.98 41.7542 32.085 41.3575 32.085Z" stroke="#606060" mask="url(#path-1-outside-1_149_195)"/>
<path d="M52.0339 32.12C51.4506 32.12 51.0072 31.945 50.7039 31.595C50.4006 31.2217 50.2489 30.7433 50.2489 30.16C50.2489 29.9033 50.2722 29.6233 50.3189 29.32C50.3889 28.9933 50.4939 28.6783 50.6339 28.375C50.8906 27.7683 51.1822 27.1967 51.5089 26.66C51.8589 26.1 52.1739 25.4933 52.4539 24.84C52.6172 24.49 52.6989 24.175 52.6989 23.895C52.6989 23.545 52.5589 23.3117 52.2789 23.195C51.9989 23.055 51.6606 22.9733 51.2639 22.95C50.8672 22.9033 50.4939 22.845 50.1439 22.775C49.7706 23.8483 49.3272 24.805 48.8139 25.645C48.3239 26.485 47.7056 27.325 46.9589 28.165C46.7022 28.4217 46.5156 28.55 46.3989 28.55C46.3056 28.55 46.2589 28.5033 46.2589 28.41C46.2589 28.2467 46.3872 28.025 46.6439 27.745C47.1572 27.1617 47.6122 26.5433 48.0089 25.89C48.4289 25.2133 48.7672 24.5833 49.0239 24C49.3039 23.4167 49.4789 22.985 49.5489 22.705C49.0356 22.495 48.6272 22.0983 48.3239 21.515C48.0206 20.9083 47.8689 20.3133 47.8689 19.73C47.8689 19.03 48.0439 18.4583 48.3939 18.015C48.7439 17.5483 49.1056 17.315 49.4789 17.315C49.8056 17.315 50.0972 17.5017 50.3539 17.875C50.6106 18.2483 50.7389 18.8783 50.7389 19.765C50.7389 20.1383 50.6922 20.5233 50.5989 20.92C50.5056 21.2933 50.4239 21.6083 50.3539 21.865C50.6339 21.9117 50.9606 21.9467 51.3339 21.97C51.7072 21.97 52.0222 21.9817 52.2789 22.005C52.5822 22.005 52.8739 22.0167 53.1539 22.04C53.4572 22.0633 53.7256 22.11 53.9589 22.18C54.5889 22.3667 54.9039 22.7517 54.9039 23.335C54.9039 23.8483 54.7056 24.49 54.3089 25.26C54.0056 25.9133 53.6672 26.5667 53.2939 27.22C52.9206 27.8733 52.6056 28.5383 52.3489 29.215C52.2556 29.4483 52.1739 29.6933 52.1039 29.95C52.0572 30.1833 52.0339 30.3933 52.0339 30.58C52.0339 31.0467 52.2439 31.28 52.6639 31.28C52.8972 31.28 53.2006 31.21 53.5739 31.07C54.2272 30.79 54.9039 30.3467 55.6039 29.74C56.3272 29.1333 57.0039 28.4683 57.6339 27.745C58.2639 27.0217 58.7772 26.3567 59.1739 25.75C59.3839 25.4467 59.5706 25.295 59.7339 25.295C59.8272 25.295 59.8739 25.3533 59.8739 25.47C59.8739 25.6333 59.7806 25.8433 59.5939 26.1C59.1972 26.73 58.6606 27.43 57.9839 28.2C57.3306 28.9467 56.6306 29.6467 55.8839 30.3C55.1372 30.93 54.4139 31.3967 53.7139 31.7C53.0606 31.98 52.5006 32.12 52.0339 32.12ZM49.7589 21.76C49.7822 21.6667 49.7939 21.5033 49.7939 21.27C49.7939 21.0833 49.7822 20.885 49.7589 20.675C49.7589 20.4417 49.7589 20.2083 49.7589 19.975C49.7589 18.995 49.6306 18.5283 49.3739 18.575C49.2806 18.5983 49.1989 18.715 49.1289 18.925C49.0589 19.135 49.0239 19.38 49.0239 19.66C49.0239 20.0567 49.0822 20.465 49.1989 20.885C49.3389 21.305 49.5256 21.5967 49.7589 21.76Z" stroke="#606060" mask="url(#path-1-outside-1_149_195)"/>
<path d="M61.1831 32.085C60.4598 32.085 59.9465 31.875 59.6431 31.455C59.3631 31.0117 59.2231 30.475 59.2231 29.845C59.2231 29.2383 59.3048 28.6083 59.4681 27.955C59.6548 27.2783 59.8648 26.6483 60.0981 26.065C60.3315 25.4817 60.5181 25.0267 60.6581 24.7C60.3548 25.1433 60.0398 25.5867 59.7131 26.03C59.4098 26.4733 59.0715 26.905 58.6981 27.325C58.4881 27.5583 58.2898 27.675 58.1031 27.675C58.0098 27.675 57.9631 27.6283 57.9631 27.535C57.9631 27.4417 58.0215 27.325 58.1381 27.185C58.9548 26.135 59.6315 25.1667 60.1681 24.28C60.7281 23.3933 61.1481 22.7283 61.4281 22.285C61.6148 21.9583 61.9181 21.76 62.3381 21.69C62.7581 21.62 63.1198 21.5967 63.4231 21.62C63.5165 21.62 63.6215 21.6317 63.7381 21.655C63.8548 21.655 64.0298 21.655 64.2631 21.655C63.7731 22.495 63.3415 23.405 62.9681 24.385C62.5948 25.365 62.1981 26.2983 61.7781 27.185C61.4281 27.9083 61.1715 28.5383 61.0081 29.075C60.8448 29.6117 60.7631 30.055 60.7631 30.405C60.7631 31.035 60.9848 31.35 61.4281 31.35C61.7781 31.35 62.2215 31.07 62.7581 30.51C63.2948 29.9267 63.8431 29.2033 64.4031 28.34C64.9631 27.4767 65.4298 26.6017 65.8031 25.715C66.0831 25.1083 66.3515 24.49 66.6081 23.86C66.8881 23.23 67.1098 22.705 67.2731 22.285C67.3665 22.1217 67.5881 22.005 67.9381 21.935C68.3115 21.8417 68.7198 21.7833 69.1631 21.76C69.6298 21.7367 70.0498 21.725 70.4231 21.725C70.1198 22.005 69.7698 22.4833 69.3731 23.16C68.9998 23.8133 68.6265 24.56 68.2531 25.4C67.9031 26.24 67.6115 27.0683 67.3781 27.885C67.1448 28.7017 67.0281 29.4017 67.0281 29.985C67.0281 30.0783 67.0281 30.1717 67.0281 30.265C67.0515 30.3583 67.0748 30.4517 67.0981 30.545C67.2148 30.965 67.4948 31.175 67.9381 31.175C68.0548 31.175 68.1715 31.1633 68.2881 31.14C68.4281 31.1167 68.5798 31.07 68.7431 31C69.3965 30.72 70.0731 30.3 70.7731 29.74C71.4731 29.18 72.1381 28.55 72.7681 27.85C73.3981 27.15 73.9231 26.485 74.3431 25.855C74.5531 25.5517 74.7281 25.4 74.8681 25.4C74.9381 25.4 74.9731 25.4467 74.9731 25.54C74.9731 25.7267 74.8798 25.96 74.6931 26.24C74.2731 26.87 73.7481 27.5583 73.1181 28.305C72.5115 29.0517 71.8465 29.74 71.1231 30.37C70.4231 31 69.7231 31.4667 69.0231 31.77C68.5098 31.98 68.0315 32.085 67.5881 32.085C66.7015 32.085 66.0248 31.735 65.5581 31.035C65.1148 30.3117 64.9398 29.5417 65.0331 28.725C64.4965 29.635 63.9015 30.4283 63.2481 31.105C62.6181 31.7583 61.9298 32.085 61.1831 32.085Z" stroke="#606060" mask="url(#path-1-outside-1_149_195)"/>
<path d="M78.3897 43.95C77.7364 43.8567 77.2814 43.5533 77.0247 43.04C76.7681 42.55 76.6397 41.9317 76.6397 41.185C76.6397 40.2983 76.7681 39.3067 77.0247 38.21C77.3047 37.1367 77.6314 36.0633 78.0047 34.99C78.3781 33.94 78.7281 32.995 79.0547 32.155C79.4047 31.3383 79.6614 30.755 79.8247 30.405C79.3814 30.965 78.8331 31.4083 78.1797 31.735C77.5264 32.0383 76.8847 32.19 76.2547 32.19C75.5314 32.19 74.8897 31.945 74.3297 31.455C73.7931 30.9417 73.5247 30.1367 73.5247 29.04C73.5247 28.1767 73.7581 27.115 74.2247 25.855C74.4814 25.2717 74.8431 24.665 75.3097 24.035C75.7997 23.3817 76.3831 22.8333 77.0597 22.39C77.7597 21.9233 78.5414 21.69 79.4047 21.69C80.3614 21.69 81.0264 21.865 81.3997 22.215C81.7964 22.5417 82.0414 22.81 82.1347 23.02C82.1581 23.09 82.1697 23.1717 82.1697 23.265C82.1697 23.405 82.1231 23.51 82.0297 23.58C81.9364 23.65 81.8314 23.685 81.7147 23.685C81.5281 23.685 81.4114 23.615 81.3647 23.475C81.2481 23.0783 81.0614 22.81 80.8047 22.67C80.5714 22.5067 80.3147 22.425 80.0347 22.425C79.7314 22.425 79.4164 22.5067 79.0897 22.67C78.7631 22.81 78.4831 23.0083 78.2497 23.265C78.0631 23.475 77.8181 23.8367 77.5147 24.35C77.2347 24.84 76.9431 25.4233 76.6397 26.1C76.3597 26.7533 76.1147 27.4067 75.9047 28.06C75.7181 28.7133 75.6247 29.3083 75.6247 29.845C75.6247 30.2883 75.7181 30.6617 75.9047 30.965C76.0914 31.245 76.4181 31.385 76.8847 31.385C77.4447 31.385 77.9581 31.175 78.4247 30.755C78.9147 30.335 79.3464 29.8333 79.7197 29.25C80.1164 28.6667 80.4197 28.1417 80.6297 27.675C81.1897 26.5317 81.7264 25.47 82.2397 24.49C82.7531 23.51 83.1614 22.6933 83.4647 22.04C83.5581 21.8767 83.7331 21.7483 83.9897 21.655C84.2697 21.5617 84.5497 21.515 84.8297 21.515C85.0864 21.515 85.2964 21.5617 85.4597 21.655C85.6231 21.725 85.7047 21.8533 85.7047 22.04C85.7047 22.1567 85.6697 22.285 85.5997 22.425C85.4131 22.7983 85.1681 23.3 84.8647 23.93C84.5614 24.5367 84.2347 25.2133 83.8847 25.96C83.5581 26.6833 83.2314 27.4067 82.9047 28.13C82.5781 28.83 82.2981 29.46 82.0647 30.02C82.0181 30.16 81.9947 30.2883 81.9947 30.405C81.9947 30.6383 82.0764 30.8717 82.2397 31.105C82.4031 31.3383 82.6831 31.455 83.0797 31.455C83.3364 31.455 83.7097 31.3617 84.1997 31.175C84.8531 30.895 85.5414 30.475 86.2647 29.915C87.0114 29.3317 87.7114 28.6783 88.3647 27.955C89.0181 27.2317 89.5547 26.5433 89.9747 25.89C90.1847 25.5867 90.3597 25.435 90.4997 25.435C90.5697 25.435 90.6047 25.4817 90.6047 25.575C90.6047 25.7617 90.5114 25.995 90.3247 26.275C89.9981 26.7883 89.5664 27.3717 89.0297 28.025C88.4931 28.6783 87.8981 29.32 87.2447 29.95C86.6147 30.5567 85.9497 31.0817 85.2497 31.525C84.5731 31.9683 83.9081 32.225 83.2547 32.295C83.2081 32.295 83.1497 32.295 83.0797 32.295C83.0331 32.3183 82.9864 32.33 82.9397 32.33C82.6131 32.33 82.3564 32.2833 82.1697 32.19C82.0064 32.0967 81.9247 32.05 81.9247 32.05C82.0647 33.31 82.1347 34.4417 82.1347 35.445C82.1347 36.7283 82.0414 37.8483 81.8547 38.805C81.6681 39.7617 81.4347 40.6133 81.1547 41.36C80.7814 42.3633 80.3381 43.0633 79.8247 43.46C79.3347 43.8567 78.8564 44.02 78.3897 43.95ZM78.9497 42.935C79.3231 42.935 79.7314 42.2817 80.1747 40.975C80.3381 40.555 80.5014 39.89 80.6647 38.98C80.8514 38.0933 81.0031 37.1367 81.1197 36.11C81.2597 35.0833 81.3297 34.1733 81.3297 33.38C81.3297 33.0067 81.3064 32.6683 81.2597 32.365C81.2364 32.085 81.1781 31.8633 81.0847 31.7C80.6181 33.2633 80.1864 34.71 79.7897 36.04C79.4164 37.37 79.0664 38.8633 78.7397 40.52C78.6931 40.8 78.6464 41.0567 78.5997 41.29C78.5764 41.5233 78.5647 41.7333 78.5647 41.92C78.5647 42.5967 78.6931 42.935 78.9497 42.935Z" stroke="#606060" mask="url(#path-1-outside-1_149_195)"/>
</svg>
