<svg width="20" height="21" viewBox="0 0 20 21" fill="none" xmlns="http://www.w3.org/2000/svg">
<g clip-path="url(#clip0_41_227)">
<path d="M10.0002 14.6666C12.3013 14.6666 14.1668 12.8011 14.1668 10.4999C14.1668 8.19873 12.3013 6.33325 10.0002 6.33325C7.69898 6.33325 5.8335 8.19873 5.8335 10.4999C5.8335 12.8011 7.69898 14.6666 10.0002 14.6666Z" stroke="#999999" stroke-opacity="0.5" stroke-width="1.66667" stroke-linecap="round" stroke-linejoin="round"/>
<path d="M10 1.33325V2.99992" stroke="#999999" stroke-opacity="0.5" stroke-width="1.66667" stroke-linecap="round" stroke-linejoin="round"/>
<path d="M10 18V19.6667" stroke="#999999" stroke-opacity="0.5" stroke-width="1.66667" stroke-linecap="round" stroke-linejoin="round"/>
<path d="M3.5166 4.0166L4.69993 5.19993" stroke="#999999" stroke-opacity="0.5" stroke-width="1.66667" stroke-linecap="round" stroke-linejoin="round"/>
<path d="M15.2998 15.8L16.4831 16.9834" stroke="#999999" stroke-opacity="0.5" stroke-width="1.66667" stroke-linecap="round" stroke-linejoin="round"/>
<path d="M0.833496 10.5H2.50016" stroke="#999999" stroke-opacity="0.5" stroke-width="1.66667" stroke-linecap="round" stroke-linejoin="round"/>
<path d="M17.5 10.5H19.1667" stroke="#999999" stroke-opacity="0.5" stroke-width="1.66667" stroke-linecap="round" stroke-linejoin="round"/>
<path d="M3.5166 16.9834L4.69993 15.8" stroke="#999999" stroke-opacity="0.5" stroke-width="1.66667" stroke-linecap="round" stroke-linejoin="round"/>
<path d="M15.2998 5.19993L16.4831 4.0166" stroke="#999999" stroke-opacity="0.5" stroke-width="1.66667" stroke-linecap="round" stroke-linejoin="round"/>
</g>
<defs>
<clipPath id="clip0_41_227">
<rect width="20" height="20" fill="white" transform="translate(0 0.5)"/>
</clipPath>
</defs>
</svg>
