<svg width="39" height="21" viewBox="0 0 39 21" fill="none" xmlns="http://www.w3.org/2000/svg">
<path d="M36.0672 10.9417L30.4422 16.5667C30.3548 16.6542 30.2434 16.7138 30.1221 16.738C30.0008 16.7621 29.875 16.7497 29.7608 16.7024C29.6465 16.6551 29.5488 16.5749 29.4802 16.472C29.4115 16.3691 29.3749 16.2482 29.375 16.1245V11.1245H3.125C2.95924 11.1245 2.80027 11.0587 2.68306 10.9415C2.56585 10.8242 2.5 10.6653 2.5 10.4995C2.5 10.3338 2.56585 10.1748 2.68306 10.0576C2.80027 9.94036 2.95924 9.87452 3.125 9.87452H29.375V4.87452C29.3749 4.75083 29.4115 4.6299 29.4802 4.52703C29.5488 4.42416 29.6465 4.34397 29.7608 4.29663C29.875 4.24928 30.0008 4.2369 30.1221 4.26106C30.2434 4.28522 30.3548 4.34482 30.4422 4.43233L36.0672 10.0573C36.1253 10.1154 36.1714 10.1843 36.2029 10.2602C36.2343 10.3361 36.2505 10.4174 36.2505 10.4995C36.2505 10.5817 36.2343 10.663 36.2029 10.7389C36.1714 10.8147 36.1253 10.8837 36.0672 10.9417Z" fill="CurrentColor"/>
</svg>
