<svg width="21" height="21" viewBox="0 0 21 21" fill="none" xmlns="http://www.w3.org/2000/svg">
<g clip-path="url(#clip0_1728_8357)">
<path d="M18.25 11.75V16.75C18.25 16.9158 18.1842 17.0747 18.0669 17.1919C17.9497 17.3092 17.7908 17.375 17.625 17.375H3.875C3.70924 17.375 3.55027 17.3092 3.43306 17.1919C3.31585 17.0747 3.25 16.9158 3.25 16.75V11.75C3.25 11.5842 3.31585 11.4253 3.43306 11.3081C3.55027 11.1908 3.70924 11.125 3.875 11.125C4.04076 11.125 4.19973 11.1908 4.31694 11.3081C4.43415 11.4253 4.5 11.5842 4.5 11.75V16.125H17V11.75C17 11.5842 17.0658 11.4253 17.1831 11.3081C17.3003 11.1908 17.4592 11.125 17.625 11.125C17.7908 11.125 17.9497 11.1908 18.0669 11.3081C18.1842 11.4253 18.25 11.5842 18.25 11.75ZM10.3078 12.1922C10.3659 12.2503 10.4348 12.2964 10.5107 12.3279C10.5865 12.3593 10.6679 12.3755 10.75 12.3755C10.8321 12.3755 10.9135 12.3593 10.9893 12.3279C11.0652 12.2964 11.1341 12.2503 11.1922 12.1922L14.3172 9.06719C14.4047 8.97978 14.4643 8.86837 14.4885 8.74707C14.5126 8.62576 14.5002 8.50002 14.4529 8.38576C14.4055 8.27149 14.3254 8.17384 14.2225 8.10517C14.1196 8.03651 13.9987 7.9999 13.875 8H11.375V3C11.375 2.83424 11.3092 2.67527 11.1919 2.55806C11.0747 2.44085 10.9158 2.375 10.75 2.375C10.5842 2.375 10.4253 2.44085 10.3081 2.55806C10.1908 2.67527 10.125 2.83424 10.125 3V8H7.625C7.50132 7.9999 7.38038 8.03651 7.27751 8.10517C7.17464 8.17384 7.09446 8.27149 7.04711 8.38576C6.99977 8.50002 6.98739 8.62576 7.01154 8.74707C7.0357 8.86837 7.09531 8.97978 7.18281 9.06719L10.3078 12.1922Z" fill="CurrentColor"/>
</g>
<defs>
<clipPath id="clip0_1728_8357">
<rect width="20" height="20" fill="CurrentColor" transform="translate(0.75 0.5)"/>
</clipPath>
</defs>
</svg>
