<svg width="45" height="45" viewBox="0 0 45 45" fill="none" xmlns="http://www.w3.org/2000/svg">
<rect x="1" y="1" width="43" height="43" rx="21.5" stroke="black" stroke-width="2"/>
<path d="M17.25 14.239V30.7615C17.2524 30.8933 17.2896 31.0222 17.3578 31.1351C17.4259 31.248 17.5226 31.341 17.6381 31.4046C17.7536 31.4682 17.8839 31.5002 18.0157 31.4974C18.1476 31.4946 18.2763 31.4571 18.3891 31.3887L31.8966 23.1274C32.0045 23.0621 32.0937 22.9701 32.1556 22.8602C32.2175 22.7504 32.2501 22.6264 32.2501 22.5003C32.2501 22.3741 32.2175 22.2501 32.1556 22.1403C32.0937 22.0304 32.0045 21.9384 31.8966 21.8731L18.3891 13.6118C18.2763 13.5434 18.1476 13.5059 18.0157 13.5031C17.8839 13.5003 17.7536 13.5323 17.6381 13.5959C17.5226 13.6595 17.4259 13.7525 17.3578 13.8654C17.2896 13.9783 17.2524 14.1072 17.25 14.239Z" fill="CurrentColor" stroke="CurrentColor" stroke-width="3" stroke-linecap="round" stroke-linejoin="round"/>
</svg>
