<svg width="25" height="24" viewBox="0 0 25 24" fill="none" xmlns="http://www.w3.org/2000/svg">
<path d="M10.344 8.13611C10.344 10.002 10.344 10.9349 9.76435 11.5146C9.1847 12.0942 8.25175 12.0942 6.38587 12.0942C4.51998 12.0942 3.58704 12.0942 3.00739 11.5146C2.42773 10.9349 2.42773 10.002 2.42773 8.13611C2.42773 6.27023 2.42773 5.33729 3.00739 4.75764C3.58704 4.17798 4.51998 4.17798 6.38587 4.17798C8.25175 4.17798 9.1847 4.17798 9.76435 4.75764C10.344 5.33729 10.344 6.27023 10.344 8.13611Z" fill="#1F1F1F" stroke="#1F1F1F" stroke-width="1.4843"/>
<path d="M10.3454 7.14648V11.5817C10.3454 15.5127 7.85603 18.8464 4.4082 20.0104" stroke="#1F1F1F" stroke-width="1.4843" stroke-linecap="round"/>
<path d="M22.219 8.13611C22.219 10.002 22.219 10.9349 21.6393 11.5146C21.0597 12.0942 20.1267 12.0942 18.2609 12.0942C16.395 12.0942 15.4621 12.0942 14.8824 11.5146C14.3027 10.9349 14.3027 10.002 14.3027 8.13611C14.3027 6.27023 14.3027 5.33729 14.8824 4.75764C15.4621 4.17798 16.395 4.17798 18.2609 4.17798C20.1267 4.17798 21.0597 4.17798 21.6393 4.75764C22.219 5.33729 22.219 6.27023 22.219 8.13611Z" fill="#1F1F1F" stroke="#1F1F1F" stroke-width="1.4843"/>
<path d="M22.2185 7.14648V11.5817C22.2185 15.5127 19.7291 18.8464 16.2812 20.0104" stroke="#1F1F1F" stroke-width="1.4843" stroke-linecap="round"/>
</svg>
